<svg width="35" height="35" viewBox="0 0 35 35" fill="none" xmlns="http://www.w3.org/2000/svg">
<path d="M21.1504 19.5166C22.0681 18.9587 22.7781 18.116 23.1722 17.117C23.5663 16.118 23.6229 15.0175 23.3332 13.9833C23.0436 12.9492 22.4236 12.0381 21.5679 11.3892C20.7122 10.7402 19.6677 10.389 18.5938 10.389C17.5198 10.389 16.4753 10.7402 15.6196 11.3892C14.7639 12.0381 14.1439 12.9492 13.8543 13.9833C13.5646 15.0175 13.6212 16.118 14.0153 17.117C14.4094 18.116 15.1194 18.9587 16.0371 19.5166C14.2604 20.0568 12.7033 21.1515 11.5938 22.6406C11.5507 22.6981 11.5193 22.7635 11.5015 22.833C11.4837 22.9026 11.4797 22.975 11.4899 23.0461C11.5 23.1172 11.5241 23.1856 11.5607 23.2474C11.5973 23.3092 11.6457 23.3632 11.7031 23.4062C11.7606 23.4493 11.826 23.4807 11.8955 23.4985C11.9651 23.5163 12.0375 23.5203 12.1086 23.5101C12.2522 23.4896 12.3817 23.4129 12.4688 23.2969C13.1819 22.346 14.1067 21.5742 15.1698 21.0427C16.2329 20.5111 17.4052 20.2344 18.5938 20.2344C19.7823 20.2344 20.9546 20.5111 22.0177 21.0427C23.0808 21.5742 24.0056 22.346 24.7188 23.2969C24.8058 23.4129 24.9353 23.4896 25.0789 23.5101C25.2225 23.5306 25.3683 23.4933 25.4844 23.4062C25.6004 23.3192 25.6771 23.1897 25.6976 23.0461C25.7181 22.9025 25.6808 22.7567 25.5938 22.6406C24.4839 21.1519 22.9269 20.0572 21.1504 19.5166ZM14.7656 15.3125C14.7656 14.5554 14.9901 13.8152 15.4108 13.1857C15.8314 12.5562 16.4293 12.0655 17.1288 11.7758C17.8283 11.486 18.598 11.4102 19.3406 11.5579C20.0832 11.7056 20.7653 12.0702 21.3006 12.6056C21.836 13.141 22.2006 13.8231 22.3483 14.5657C22.496 15.3083 22.4202 16.078 22.1305 16.7775C21.8407 17.477 21.3501 18.0748 20.7205 18.4955C20.091 18.9161 19.3509 19.1406 18.5938 19.1406C17.5785 19.1406 16.6048 18.7373 15.8869 18.0194C15.1689 17.3015 14.7656 16.3278 14.7656 15.3125ZM28.4375 3.82812H8.75C8.31488 3.82812 7.89758 4.00098 7.5899 4.30865C7.28223 4.61633 7.10938 5.03363 7.10938 5.46875V9.29688H4.375C4.22996 9.29688 4.09086 9.35449 3.9883 9.45705C3.88574 9.55961 3.82812 9.69871 3.82812 9.84375C3.82812 9.98879 3.88574 10.1279 3.9883 10.2304C4.09086 10.333 4.22996 10.3906 4.375 10.3906H7.10938V16.9531H4.375C4.22996 16.9531 4.09086 17.0107 3.9883 17.1133C3.88574 17.2159 3.82812 17.355 3.82812 17.5C3.82812 17.645 3.88574 17.7841 3.9883 17.8867C4.09086 17.9893 4.22996 18.0469 4.375 18.0469H7.10938V24.6094H4.375C4.22996 24.6094 4.09086 24.667 3.9883 24.7696C3.88574 24.8721 3.82812 25.0112 3.82812 25.1562C3.82812 25.3013 3.88574 25.4404 3.9883 25.5429C4.09086 25.6455 4.22996 25.7031 4.375 25.7031H7.10938V29.5312C7.10938 29.9664 7.28223 30.3837 7.5899 30.6913C7.89758 30.999 8.31488 31.1719 8.75 31.1719H28.4375C28.8726 31.1719 29.2899 30.999 29.5976 30.6913C29.9053 30.3837 30.0781 29.9664 30.0781 29.5312V5.46875C30.0781 5.03363 29.9053 4.61633 29.5976 4.30865C29.2899 4.00098 28.8726 3.82812 28.4375 3.82812ZM28.9844 29.5312C28.9844 29.6763 28.9268 29.8154 28.8242 29.9179C28.7216 30.0205 28.5825 30.0781 28.4375 30.0781H8.75C8.60496 30.0781 8.46586 30.0205 8.3633 29.9179C8.26074 29.8154 8.20312 29.6763 8.20312 29.5312V5.46875C8.20312 5.32371 8.26074 5.18461 8.3633 5.08205C8.46586 4.97949 8.60496 4.92188 8.75 4.92188H28.4375C28.5825 4.92188 28.7216 4.97949 28.8242 5.08205C28.9268 5.18461 28.9844 5.32371 28.9844 5.46875V29.5312Z" fill="#868889"/>
</svg>
