<svg width="24" height="24" viewBox="0 0 24 24" fill="none" xmlns="http://www.w3.org/2000/svg">
<g clip-path="url(#clip0_498_14268)">
<path d="M8 2C8.55228 2 9 2.44772 9 3V4L15 4V3C15 2.44772 15.4477 2 16 2C16.5523 2 17 2.44772 17 3V4H18C20.2091 4 22 5.79086 22 8V11C22 11.5523 21.5523 12 21 12H4L4 19.9984L4.00155 19.9997C4.00122 19.9996 4.00141 19.9996 4.00155 19.9997L4.00325 20H8.5C9.05229 20 9.5 20.4477 9.5 21C9.5 21.5523 9.05229 22 8.5 22L4.00325 22C2.90292 22 2 21.1088 2 20V8C2 5.79086 3.79086 4 6 4H7V3C7 2.44772 7.44772 2 8 2Z" fill="#808089"/>
<path d="M18.7071 14.2929L21.7071 17.2929C22.0976 17.6834 22.0976 18.3166 21.7071 18.7071L18.7071 21.7071C18.3166 22.0976 17.6834 22.0976 17.2929 21.7071C16.9024 21.3166 16.9024 20.6834 17.2929 20.2929L18.5858 19H12C11.4477 19 11 18.5523 11 18C11 17.4477 11.4477 17 12 17H18.5858L17.2929 15.7071C16.9024 15.3166 16.9024 14.6834 17.2929 14.2929C17.6834 13.9024 18.3166 13.9024 18.7071 14.2929Z" fill="#808089"/>
</g>
<defs>
<clipPath id="clip0_498_14268">
<rect width="20" height="20" fill="white" transform="translate(2 2)"/>
</clipPath>
</defs>
</svg>
