<svg width="24" height="24" viewBox="0 0 24 24" fill="none" xmlns="http://www.w3.org/2000/svg">
<g clip-path="url(#clip0_498_21822)">
<path d="M15 3C15 2.44772 15.4477 2 16 2C16.5523 2 17 2.44772 17 3V4H18C20.2091 4 22 5.79086 22 8V20C22 21.1088 21.0971 22 19.9967 22L15.5 22C14.9477 22 14.5 21.5523 14.5 21C14.5 20.4477 14.9477 20 15.5 20L19.9967 20L19.998 20L20 19.9984L20 12H3C2.44772 12 2 11.5523 2 11V8C2 5.79086 3.79086 4 6 4H7V3C7 2.44772 7.44772 2 8 2C8.55229 2 9 2.44772 9 3V4L15 4V3Z" fill="#808089"/>
<path d="M6.70711 15.7071C7.09763 15.3166 7.09763 14.6834 6.70711 14.2929C6.31658 13.9024 5.68342 13.9024 5.29289 14.2929L2.29289 17.2929C1.90237 17.6834 1.90237 18.3166 2.29289 18.7071L5.29289 21.7071C5.68342 22.0976 6.31658 22.0976 6.70711 21.7071C7.09763 21.3166 7.09763 20.6834 6.70711 20.2929L5.41421 19H12C12.5523 19 13 18.5523 13 18C13 17.4477 12.5523 17 12 17H5.41421L6.70711 15.7071Z" fill="#808089"/>
</g>
<defs>
<clipPath id="clip0_498_21822">
<rect width="20" height="20" fill="white" transform="matrix(-1 0 0 1 22 2)"/>
</clipPath>
</defs>
</svg>
