<svg width="24" height="25" viewBox="0 0 24 25" fill="none" xmlns="http://www.w3.org/2000/svg">
<g clip-path="url(#clip0_527_23135)">
<path fill-rule="evenodd" clip-rule="evenodd" d="M12 22.5C17.5228 22.5 22 18.0228 22 12.5C22 6.97715 17.5228 2.5 12 2.5C6.47715 2.5 2 6.97715 2 12.5C2 18.0228 6.47715 22.5 12 22.5ZM16.8839 11.3839C17.372 10.8957 17.372 10.1043 16.8839 9.61612C16.3957 9.12796 15.6043 9.12796 15.1161 9.61612L11 13.7322L8.88388 11.6161C8.39573 11.128 7.60427 11.128 7.11612 11.6161C6.62796 12.1043 6.62796 12.8957 7.11612 13.3839L10.1161 16.3839C10.6043 16.872 11.3957 16.872 11.8839 16.3839L16.8839 11.3839Z" fill="#00AB56"/>
<path fill-rule="evenodd" clip-rule="evenodd" d="M12 22.5C17.5228 22.5 22 18.0228 22 12.5C22 6.97715 17.5228 2.5 12 2.5C6.47715 2.5 2 6.97715 2 12.5C2 18.0228 6.47715 22.5 12 22.5ZM16.8839 11.3839C17.372 10.8957 17.372 10.1043 16.8839 9.61612C16.3957 9.12796 15.6043 9.12796 15.1161 9.61612L11 13.7322L8.88388 11.6161C8.39573 11.128 7.60427 11.128 7.11612 11.6161C6.62796 12.1043 6.62796 12.8957 7.11612 13.3839L10.1161 16.3839C10.6043 16.872 11.3957 16.872 11.8839 16.3839L16.8839 11.3839Z" fill="#00AB56"/>
</g>
<defs>
<clipPath id="clip0_527_23135">
<rect width="20" height="20" fill="white" transform="translate(2 2.5)"/>
</clipPath>
</defs>
</svg>
