<svg width="23" height="26" viewBox="0 0 23 26" fill="none" xmlns="http://www.w3.org/2000/svg">
<path d="M2.28933 25.8258C1.63672 25.8258 1.09225 25.6077 0.655916 25.1713C0.219583 24.735 0.000944445 24.1905 0 23.5379V5.44708C0 4.79542 0.218639 4.25142 0.655916 3.81508C1.09319 3.37875 1.63767 3.16011 2.28933 3.15917H4.79542V0H6.32117V3.15917H16.456V0H17.8727V3.15917H20.3788C21.0304 3.15917 21.5749 3.37781 22.0122 3.81508C22.4494 4.25236 22.6676 4.79683 22.6667 5.4485V23.5379C22.6667 24.1896 22.4485 24.7341 22.0122 25.1713C21.5758 25.6086 21.0309 25.8268 20.3773 25.8258H2.28933ZM2.28933 24.4092H20.3788C20.596 24.4092 20.7957 24.3185 20.978 24.1372C21.1603 23.9558 21.2509 23.7556 21.25 23.5365V11.1152H1.41667V23.5379C1.41667 23.7551 1.50733 23.9549 1.68867 24.1372C1.87 24.3194 2.06975 24.4101 2.28792 24.4092M1.41667 9.69708H21.25V5.44708C21.25 5.22986 21.1593 5.03011 20.978 4.84783C20.7967 4.66556 20.5964 4.57489 20.3773 4.57583H2.28933C2.07117 4.57583 1.87094 4.6665 1.68867 4.84783C1.50639 5.02917 1.41572 5.22939 1.41667 5.4485V9.69708ZM11.3333 16.1273C11.0406 16.1273 10.7856 16.0187 10.5683 15.8015C10.3511 15.5843 10.2425 15.3293 10.2425 15.0365C10.2425 14.7437 10.3511 14.4892 10.5683 14.2729C10.7856 14.0566 11.0406 13.948 11.3333 13.9471C11.6261 13.9461 11.8811 14.0548 12.0983 14.2729C12.3156 14.4911 12.4242 14.7461 12.4242 15.0379C12.4242 15.3298 12.3156 15.5843 12.0983 15.8015C11.8811 16.0187 11.6261 16.1273 11.3333 16.1273ZM5.66667 16.1273C5.37389 16.1273 5.11889 16.0187 4.90167 15.8015C4.68444 15.5843 4.57583 15.3293 4.57583 15.0365C4.57583 14.7437 4.68444 14.4892 4.90167 14.2729C5.11889 14.0566 5.37389 13.948 5.66667 13.9471C5.95944 13.9461 6.21444 14.0548 6.43167 14.2729C6.64889 14.4911 6.7575 14.7461 6.7575 15.0379C6.7575 15.3298 6.64889 15.5843 6.43167 15.8015C6.21444 16.0187 5.95944 16.1273 5.66667 16.1273ZM17 16.1273C16.7072 16.1273 16.4522 16.0187 16.235 15.8015C16.0178 15.5843 15.9092 15.3293 15.9092 15.0365C15.9092 14.7437 16.0178 14.4892 16.235 14.2729C16.4522 14.0566 16.7072 13.948 17 13.9471C17.2928 13.9461 17.5478 14.0548 17.765 14.2729C17.9822 14.4911 18.0908 14.7461 18.0908 15.0379C18.0908 15.3298 17.9822 15.5843 17.765 15.8015C17.5478 16.0187 17.2928 16.1273 17 16.1273ZM11.3333 21.5758C11.0406 21.5758 10.7856 21.4672 10.5683 21.25C10.3511 21.0328 10.2425 20.7778 10.2425 20.485C10.2425 20.1922 10.3511 19.9377 10.5683 19.7214C10.7856 19.5051 11.0406 19.3965 11.3333 19.3956C11.6261 19.3946 11.8811 19.5033 12.0983 19.7214C12.3156 19.9396 12.4242 20.1946 12.4242 20.4864C12.4242 20.7783 12.3156 21.0333 12.0983 21.2514C11.8811 21.4696 11.6261 21.5777 11.3333 21.5758ZM5.66667 21.5758C5.37389 21.5758 5.11889 21.4672 4.90167 21.25C4.68444 21.0328 4.57583 20.7778 4.57583 20.485C4.57583 20.1922 4.68444 19.9377 4.90167 19.7214C5.11889 19.5051 5.37389 19.3965 5.66667 19.3956C5.95944 19.3946 6.21444 19.5033 6.43167 19.7214C6.64889 19.9396 6.7575 20.1946 6.7575 20.4864C6.7575 20.7783 6.64889 21.0333 6.43167 21.2514C6.21444 21.4696 5.95944 21.5777 5.66667 21.5758ZM17 21.5758C16.7072 21.5758 16.4522 21.4672 16.235 21.25C16.0178 21.0328 15.9092 20.7778 15.9092 20.485C15.9092 20.1922 16.0178 19.9377 16.235 19.7214C16.4522 19.5051 16.7072 19.3965 17 19.3956C17.2928 19.3946 17.5478 19.5033 17.765 19.7214C17.9822 19.9396 18.0908 20.1946 18.0908 20.4864C18.0908 20.7783 17.9822 21.0333 17.765 21.2514C17.5478 21.4696 17.2928 21.5777 17 21.5758Z" fill="#868889"/>
</svg>
