<svg width="18" height="18" viewBox="0 0 18 18" fill="none" xmlns="http://www.w3.org/2000/svg">
<g clip-path="url(#clip0_527_27048)">
<path fill-rule="evenodd" clip-rule="evenodd" d="M0.666016 1.50033C0.666016 1.04009 1.03911 0.666992 1.49935 0.666992H16.4993C16.9596 0.666992 17.3327 1.04009 17.3327 1.50033V3.65515C17.3327 4.09718 17.1571 4.5211 16.8445 4.83366L11.4993 10.1788V14.8337C11.4993 15.1493 11.321 15.4379 11.0387 15.579L7.70536 17.2457C7.44704 17.3748 7.14025 17.361 6.89457 17.2092C6.64889 17.0574 6.49935 16.7891 6.49935 16.5003V10.1788L1.15417 4.83366C0.841609 4.5211 0.666016 4.09717 0.666016 3.65515V1.50033ZM2.33268 2.33366V3.65515L7.92194 9.2444C8.07822 9.40068 8.16602 9.61265 8.16602 9.83366V15.152L9.83268 14.3186V9.83366C9.83268 9.61265 9.92048 9.40068 10.0768 9.2444L15.666 3.65515V2.33366H2.33268Z" fill="#808089"/>
</g>
<defs>
<clipPath id="clip0_527_27048">
<rect width="16.6667" height="16.6667" fill="white" transform="translate(0.666016 0.666992)"/>
</clipPath>
</defs>
</svg>
