<svg width="18" height="18" viewBox="0 0 18 18" fill="none" xmlns="http://www.w3.org/2000/svg">
<path d="M4.83203 9C4.83203 9.69036 4.27239 10.25 3.58203 10.25C2.89168 10.25 2.33203 9.69036 2.33203 9C2.33203 8.30964 2.89168 7.75 3.58203 7.75C4.27239 7.75 4.83203 8.30964 4.83203 9Z" fill="white"/>
<path d="M15.6654 9C15.6654 9.69036 15.1057 10.25 14.4154 10.25C13.725 10.25 13.1654 9.69036 13.1654 9C13.1654 8.30964 13.725 7.75 14.4154 7.75C15.1057 7.75 15.6654 8.30964 15.6654 9Z" fill="white"/>
<path d="M8.9987 10.25C9.68905 10.25 10.2487 9.69036 10.2487 9C10.2487 8.30964 9.68905 7.75 8.9987 7.75C8.30834 7.75 7.7487 8.30964 7.7487 9C7.7487 9.69036 8.30834 10.25 8.9987 10.25Z" fill="white"/>
</svg>
