<svg width="18" height="18" viewBox="0 0 18 18" fill="none" xmlns="http://www.w3.org/2000/svg">
<g clip-path="url(#clip0_527_22461)">
<path fill-rule="evenodd" clip-rule="evenodd" d="M17.3327 11.5007V14.0007C17.3327 14.9211 16.5865 15.6673 15.666 15.6673L2.33268 15.6673C1.41221 15.6673 0.666016 14.9211 0.666016 14.0007V11.5007L1.39825 10.7684C2.37456 9.79211 2.37456 8.20919 1.39825 7.23288L0.666016 6.50065V4.00065C0.666016 3.08018 1.41221 2.33398 2.33268 2.33398H15.666C16.5865 2.33398 17.3327 3.08018 17.3327 4.00065V6.50065L16.6005 7.23288C15.6241 8.20919 15.6241 9.79211 16.6004 10.7684L17.3327 11.5007ZM5.66602 7.33398C5.66602 6.87375 6.03911 6.50065 6.49935 6.50065H11.4993C11.9596 6.50065 12.3327 6.87375 12.3327 7.33398C12.3327 7.79422 11.9596 8.16732 11.4993 8.16732H6.49935C6.03911 8.16732 5.66602 7.79422 5.66602 7.33398ZM6.49935 9.83398C6.03911 9.83398 5.66602 10.2071 5.66602 10.6673C5.66602 11.1276 6.03911 11.5007 6.49935 11.5007H11.4993C11.9596 11.5007 12.3327 11.1276 12.3327 10.6673C12.3327 10.2071 11.9596 9.83398 11.4993 9.83398H6.49935Z" fill="white"/>
</g>
<defs>
<clipPath id="clip0_527_22461">
<rect width="16.6667" height="16.6667" fill="white" transform="translate(0.666016 0.666992)"/>
</clipPath>
</defs>
</svg>
