<svg width="22" height="22" viewBox="0 0 22 22" fill="none" xmlns="http://www.w3.org/2000/svg">
<path d="M12.7117 5.12325C12.7117 5.34809 12.6675 5.57075 12.5815 5.7785C12.4956 5.98626 12.3695 6.17505 12.2106 6.33409C12.0516 6.49312 11.8629 6.6193 11.6552 6.70541C11.4475 6.79152 11.2249 6.83588 11.0001 6.83595C10.7752 6.83602 10.5526 6.79181 10.3448 6.70583C10.137 6.61986 9.94826 6.4938 9.78922 6.33486C9.63018 6.17593 9.504 5.98722 9.41789 5.77952C9.33178 5.57182 9.28743 5.34919 9.28735 5.12435C9.28721 4.67026 9.46745 4.23471 9.78844 3.91352C10.1094 3.59232 10.5449 3.4118 10.999 3.41165C11.453 3.41151 11.8886 3.59175 12.2098 3.91274C12.531 4.23373 12.7115 4.66916 12.7117 5.12325Z" fill="#8D8F90"/>
<path d="M11.0002 12.7111C11.9455 12.7111 12.7118 11.9447 12.7118 10.9995C12.7118 10.0542 11.9455 9.28786 11.0002 9.28786C10.0549 9.28786 9.28857 10.0542 9.28857 10.9995C9.28857 11.9447 10.0549 12.7111 11.0002 12.7111Z" fill="#8D8F90"/>
<path d="M11.0002 18.5883C11.9455 18.5883 12.7118 17.822 12.7118 16.8767C12.7118 15.9315 11.9455 15.1651 11.0002 15.1651C10.0549 15.1651 9.28857 15.9315 9.28857 16.8767C9.28857 17.822 10.0549 18.5883 11.0002 18.5883Z" fill="#8D8F90"/>
</svg>
