<svg width="24" height="24" viewBox="0 0 24 24" fill="none" xmlns="http://www.w3.org/2000/svg">
<path d="M4.16298 14.1191L3.90735 7.98747C3.89326 7.64938 4.21204 7.39521 4.5385 7.48426L5.32873 7.69982C5.63087 7.78223 5.87694 8.00143 5.9936 8.29206L6.73966 10.1507L9.63743 10.9272L8.78602 3.78854C8.73985 3.40147 9.13471 3.11279 9.48954 3.27421L11.0458 3.98219C11.3027 4.09905 11.4982 4.31901 11.5842 4.58781L13.9841 12.0918L18.5721 13.3212C19.7725 13.6428 20.4848 14.8766 20.1632 16.0769C19.8415 17.2772 18.6078 17.9895 17.4075 17.6679L4.16298 14.1191Z" fill="#808089"/>
<path d="M3 20.0004C2.44772 20.0004 2 20.4481 2 21.0004C2 21.5527 2.44772 22.0004 3 22.0004H21C21.5523 22.0004 22 21.5527 22 21.0004C22 20.4481 21.5523 20.0004 21 20.0004H3Z" fill="#808089"/>
</svg>
