<svg width="20" height="20" viewBox="0 0 20 20" fill="none" xmlns="http://www.w3.org/2000/svg">
<g clip-path="url(#clip0_518_12688)">
<path d="M4 0H16C17.1046 0 18 0.895431 18 2V5.5H17.5C15.2909 5.5 13.5 7.29086 13.5 9.5V10.5L6.5 10.5V9.5C6.5 7.29086 4.70914 5.5 2.5 5.5H2L2 2C2 0.89543 2.89543 0 4 0Z" fill="#808089"/>
<path d="M2.5 7C1.11929 7 0 8.11929 0 9.5V16C0 16.5523 0.447715 17 1 17H2L2 19C2 19.5523 2.44772 20 3 20C3.55228 20 4 19.5523 4 19V17H16V19C16 19.5523 16.4477 20 17 20C17.5523 20 18 19.5523 18 19V17H19C19.5523 17 20 16.5523 20 16V9.5C20 8.11929 18.8807 7 17.5 7C16.1193 7 15 8.11929 15 9.5V11C15 11.5523 14.5523 12 14 12H6C5.44772 12 5 11.5523 5 11V9.5C5 8.11929 3.88071 7 2.5 7Z" fill="#808089"/>
</g>
<defs>
<clipPath id="clip0_518_12688">
<rect width="20" height="20" fill="white"/>
</clipPath>
</defs>
</svg>
