<svg width="24" height="24" viewBox="0 0 24 24" fill="none" xmlns="http://www.w3.org/2000/svg">
<rect x="0.5" y="0.5" width="23" height="23" rx="11.5" stroke="#1A94FF"/>
<g clip-path="url(#clip0_360_186676)">
<path fill-rule="evenodd" clip-rule="evenodd" d="M8.19591 5.52827C8.45626 5.26792 8.87837 5.26792 9.13872 5.52827L11.8054 8.19494C12.0657 8.45529 12.0657 8.8774 11.8054 9.13775C11.545 9.3981 11.1229 9.3981 10.8626 9.13775L9.33398 7.60915V16.6663C9.33398 17.0345 9.03551 17.333 8.66732 17.333C8.29913 17.333 8.00065 17.0345 8.00065 16.6663V7.60915L6.47206 9.13775C6.21171 9.3981 5.7896 9.3981 5.52925 9.13775C5.2689 8.8774 5.2689 8.45529 5.52925 8.19494L8.19591 5.52827ZM15.334 6.66634C15.7022 6.66634 16.0007 6.96482 16.0007 7.33301L16.0007 16.3902L17.5292 14.8616C17.7896 14.6013 18.2117 14.6013 18.4721 14.8616C18.7324 15.122 18.7324 15.5441 18.4721 15.8044L15.8054 18.4711C15.6804 18.5961 15.5108 18.6663 15.334 18.6663C15.1572 18.6663 14.9876 18.5961 14.8626 18.4711L12.1959 15.8044C11.9356 15.5441 11.9356 15.122 12.1959 14.8616C12.4563 14.6013 12.8784 14.6013 13.1387 14.8616L14.6673 16.3902V7.33301C14.6673 6.96482 14.9658 6.66634 15.334 6.66634Z" fill="#1A94FF"/>
</g>
<defs>
<clipPath id="clip0_360_186676">
<rect width="13.3333" height="13.3333" fill="white" transform="translate(5.33398 5.33301)"/>
</clipPath>
</defs>
</svg>
