<svg width="20" height="20" viewBox="0 0 20 20" fill="none" xmlns="http://www.w3.org/2000/svg">
<g clip-path="url(#clip0_527_20755)">
<path fill-rule="evenodd" clip-rule="evenodd" d="M5.24343 1.91107C5.56886 1.58563 6.0965 1.58563 6.42194 1.91107L9.75527 5.2444C10.0807 5.56984 10.0807 6.09748 9.75527 6.42291C9.42983 6.74835 8.9022 6.74835 8.57676 6.42291L6.66602 4.51217V15.8337C6.66602 16.2939 6.29292 16.667 5.83268 16.667C5.37245 16.667 4.99935 16.2939 4.99935 15.8337V4.51217L3.0886 6.42291C2.76317 6.74835 2.23553 6.74835 1.91009 6.42291C1.58466 6.09748 1.58466 5.56984 1.91009 5.2444L5.24343 1.91107ZM14.166 3.33366C14.6263 3.33366 14.9994 3.70676 14.9994 4.16699L14.9993 15.4885L16.9101 13.5777C17.2355 13.2523 17.7632 13.2523 18.0886 13.5777C18.414 13.9032 18.414 14.4308 18.0886 14.7562L14.7553 18.0896C14.599 18.2459 14.387 18.3337 14.166 18.3337C13.945 18.3337 13.733 18.2459 13.5768 18.0896L10.2434 14.7562C9.91799 14.4308 9.91799 13.9032 10.2434 13.5777C10.5689 13.2523 11.0965 13.2523 11.4219 13.5777L13.3327 15.4885L13.3327 4.16699C13.3327 3.70675 13.7058 3.33366 14.166 3.33366Z" fill="#1A94FF"/>
</g>
<defs>
<clipPath id="clip0_527_20755">
<rect width="16.6667" height="16.6667" fill="white" transform="translate(1.66602 1.66699)"/>
</clipPath>
</defs>
</svg>
