<svg width="18" height="18" viewBox="0 0 18 18" fill="none" xmlns="http://www.w3.org/2000/svg">
<g clip-path="url(#clip0_527_22457)">
<path d="M6.4987 7.33366C6.4987 6.87342 6.87179 6.50033 7.33203 6.50033H8.16536V5.66699C8.16536 5.20676 8.53846 4.83366 8.9987 4.83366C9.45894 4.83366 9.83203 5.20676 9.83203 5.66699V6.50033H10.6654C11.1256 6.50033 11.4987 6.87342 11.4987 7.33366C11.4987 7.7939 11.1256 8.16699 10.6654 8.16699H9.83203V9.00033C9.83203 9.46056 9.45894 9.83366 8.9987 9.83366C8.53846 9.83366 8.16536 9.46056 8.16536 9.00033V8.16699H7.33203C6.87179 8.16699 6.4987 7.7939 6.4987 7.33366Z" fill="white"/>
<path fill-rule="evenodd" clip-rule="evenodd" d="M2.33203 2.33366C2.33203 1.41319 3.07822 0.666992 3.9987 0.666992H13.9987C14.9192 0.666992 15.6654 1.41318 15.6654 2.33366V16.5003C15.6654 16.8125 15.4909 17.0985 15.2133 17.2413C14.9358 17.3841 14.6017 17.3599 14.3477 17.1784L8.9987 13.3577L3.64973 17.1784C3.39572 17.3599 3.06161 17.3841 2.78405 17.2413C2.50649 17.0985 2.33203 16.8125 2.33203 16.5003V2.33366ZM13.9987 2.33366L3.9987 2.33366V14.881L8.51433 11.6555C8.80408 11.4486 9.19331 11.4486 9.48306 11.6555L13.9987 14.881V2.33366Z" fill="white"/>
</g>
<defs>
<clipPath id="clip0_527_22457">
<rect width="16.6667" height="16.6667" fill="white" transform="translate(0.666016 0.666992)"/>
</clipPath>
</defs>
</svg>
