<svg width="24" height="24" viewBox="0 0 24 24" fill="none" xmlns="http://www.w3.org/2000/svg">
<path d="M9.00006 5C9.00006 3.34315 10.3432 2 12.0001 2C13.6569 2 15.0001 3.34315 15.0001 5C15.0001 6.65685 13.6569 8 12.0001 8C10.3432 8 9.00006 6.65685 9.00006 5Z" fill="#808089"/>
<path d="M10.6623 9H13.3378C14.6291 9 15.7755 9.82629 16.1838 11.0513L18.0613 16.6838C18.2772 17.3313 17.7952 18 17.1126 18H15.0001L14.1894 21.2425C14.0781 21.6877 13.6782 22 13.2193 22H10.7808C10.322 22 9.92199 21.6877 9.81069 21.2425L9.00006 18H6.88749C6.20493 18 5.72296 17.3313 5.9388 16.6838L7.81629 11.0513C8.22463 9.82629 9.37105 9 10.6623 9Z" fill="#808089"/>
</svg>
